<svg xmlns="http://www.w3.org/2000/svg" xmlns:xlink="http://www.w3.org/1999/xlink" contentStyleType="text/css" data-diagram-type="CLASS" height="761px" preserveAspectRatio="none" style="width:2312px;height:761px;background:#FFFFFF;" version="1.1" viewBox="0 0 2312 761" width="2312px" zoomAndPan="magnify"><defs/><g><!--class instructor--><g class="entity" data-entity="instructor" data-source-line="12" data-uid="ent0002" id="entity_instructor"><rect fill="#FFFFFF" height="190.6719" rx="2.5" ry="2.5" style="stroke:#000000;stroke-width:1;" width="317.1318" x="90.76" y="12"/><ellipse cx="211.615" cy="26" fill="#FFFFFF" rx="9" ry="9" style="stroke:#000000;stroke-width:1;"/><path d="M215.7244,32 L208.0056,32 L208.0056,19.6094 L215.7244,19.6094 L215.7244,21.7656 L210.4587,21.7656 L210.4587,24.4375 L215.2244,24.4375 L215.2244,26.5938 L210.4587,26.5938 L210.4587,29.8438 L215.7244,29.8438 L215.7244,32 Z " fill="#000000"/><text fill="#000000" font-family="Verdana" font-size="14" lengthAdjust="spacing" textLength="67.9219" x="229.115" y="30.8467">Instructor</text><line style="stroke:#000000;stroke-width:1;" x1="91.76" x2="406.8918" y1="40" y2="40"/><ellipse cx="101.76" cy="53.6484" fill="#FFFFFF" rx="3" ry="3" style="stroke:#000000;stroke-width:1;"/><text fill="#000000" font-family="Verdana" font-size="14" lengthAdjust="spacing" textLength="151.0264" x="108.76" y="56.9951">I_ID : String &#171;unique&#187;</text><ellipse cx="101.76" cy="69.9453" fill="#FFFFFF" rx="3" ry="3" style="stroke:#000000;stroke-width:1;"/><text fill="#000000" font-family="Verdana" font-size="14" lengthAdjust="spacing" textLength="204.9141" x="108.76" y="73.292">firstName : String &#171;required&#187;</text><ellipse cx="101.76" cy="86.2422" fill="#FFFFFF" rx="3" ry="3" style="stroke:#000000;stroke-width:1;"/><text fill="#000000" font-family="Verdana" font-size="14" lengthAdjust="spacing" textLength="202.8086" x="108.76" y="89.5889">lastName : String &#171;required&#187;</text><ellipse cx="101.76" cy="102.5391" fill="#FFFFFF" rx="3" ry="3" style="stroke:#000000;stroke-width:1;"/><text fill="#000000" font-family="Verdana" font-size="14" lengthAdjust="spacing" textLength="191.5635" x="108.76" y="105.8857">address : String &#171;required&#187;</text><ellipse cx="101.76" cy="118.8359" fill="#FFFFFF" rx="3" ry="3" style="stroke:#000000;stroke-width:1;"/><text fill="#000000" font-family="Verdana" font-size="14" lengthAdjust="spacing" textLength="180.0654" x="108.76" y="122.1826">phone : String &#171;required&#187;</text><ellipse cx="101.76" cy="135.1328" fill="#FFFFFF" rx="3" ry="3" style="stroke:#000000;stroke-width:1;"/><text fill="#000000" font-family="Verdana" font-size="14" lengthAdjust="spacing" textLength="231.7725" x="108.76" y="138.4795">email : String &#171;required, unique&#187;</text><ellipse cx="101.76" cy="151.4297" fill="#FFFFFF" rx="3" ry="3" style="stroke:#000000;stroke-width:1;"/><text fill="#000000" font-family="Verdana" font-size="14" lengthAdjust="spacing" textLength="293.1318" x="108.76" y="154.7764">preferredCommunication : String &#171;enum&#187;</text><ellipse cx="101.76" cy="167.7266" fill="#FFFFFF" rx="3" ry="3" style="stroke:#000000;stroke-width:1;"/><text fill="#000000" font-family="Verdana" font-size="14" lengthAdjust="spacing" textLength="115.7803" x="108.76" y="171.0732">createdAt : Date</text><ellipse cx="101.76" cy="184.0234" fill="#FFFFFF" rx="3" ry="3" style="stroke:#000000;stroke-width:1;"/><text fill="#000000" font-family="Verdana" font-size="14" lengthAdjust="spacing" textLength="120.3604" x="108.76" y="187.3701">updatedAt : Date</text><line style="stroke:#000000;stroke-width:1;" x1="91.76" x2="406.8918" y1="194.6719" y2="194.6719"/></g><!--class customer--><g class="entity" data-entity="customer" data-source-line="24" data-uid="ent0003" id="entity_customer"><rect fill="#FFFFFF" height="206.9688" rx="2.5" ry="2.5" style="stroke:#000000;stroke-width:1;" width="317.1318" x="863.76" y="279.67"/><ellipse cx="984.574" cy="293.67" fill="#FFFFFF" rx="9" ry="9" style="stroke:#000000;stroke-width:1;"/><path d="M988.6833,299.67 L980.9646,299.67 L980.9646,287.2794 L988.6833,287.2794 L988.6833,289.4356 L983.4177,289.4356 L983.4177,292.1075 L988.1833,292.1075 L988.1833,294.2637 L983.4177,294.2637 L983.4177,297.5137 L988.6833,297.5137 L988.6833,299.67 Z " fill="#000000"/><text fill="#000000" font-family="Verdana" font-size="14" lengthAdjust="spacing" textLength="68.0039" x="1002.074" y="298.5167">Customer</text><line style="stroke:#000000;stroke-width:1;" x1="864.76" x2="1179.8918" y1="307.67" y2="307.67"/><ellipse cx="874.76" cy="321.3184" fill="#FFFFFF" rx="3" ry="3" style="stroke:#000000;stroke-width:1;"/><text fill="#000000" font-family="Verdana" font-size="14" lengthAdjust="spacing" textLength="156.6729" x="881.76" y="324.6651">C_ID : String &#171;unique&#187;</text><ellipse cx="874.76" cy="337.6153" fill="#FFFFFF" rx="3" ry="3" style="stroke:#000000;stroke-width:1;"/><text fill="#000000" font-family="Verdana" font-size="14" lengthAdjust="spacing" textLength="204.9141" x="881.76" y="340.962">firstName : String &#171;required&#187;</text><ellipse cx="874.76" cy="353.9122" fill="#FFFFFF" rx="3" ry="3" style="stroke:#000000;stroke-width:1;"/><text fill="#000000" font-family="Verdana" font-size="14" lengthAdjust="spacing" textLength="202.8086" x="881.76" y="357.2589">lastName : String &#171;required&#187;</text><ellipse cx="874.76" cy="370.2091" fill="#FFFFFF" rx="3" ry="3" style="stroke:#000000;stroke-width:1;"/><text fill="#000000" font-family="Verdana" font-size="14" lengthAdjust="spacing" textLength="191.5635" x="881.76" y="373.5557">address : String &#171;required&#187;</text><ellipse cx="874.76" cy="386.5059" fill="#FFFFFF" rx="3" ry="3" style="stroke:#000000;stroke-width:1;"/><text fill="#000000" font-family="Verdana" font-size="14" lengthAdjust="spacing" textLength="180.0654" x="881.76" y="389.8526">phone : String &#171;required&#187;</text><ellipse cx="874.76" cy="402.8028" fill="#FFFFFF" rx="3" ry="3" style="stroke:#000000;stroke-width:1;"/><text fill="#000000" font-family="Verdana" font-size="14" lengthAdjust="spacing" textLength="231.7725" x="881.76" y="406.1495">email : String &#171;required, unique&#187;</text><ellipse cx="874.76" cy="419.0997" fill="#FFFFFF" rx="3" ry="3" style="stroke:#000000;stroke-width:1;"/><text fill="#000000" font-family="Verdana" font-size="14" lengthAdjust="spacing" textLength="293.1318" x="881.76" y="422.4464">preferredCommunication : String &#171;enum&#187;</text><ellipse cx="874.76" cy="435.3966" fill="#FFFFFF" rx="3" ry="3" style="stroke:#000000;stroke-width:1;"/><text fill="#000000" font-family="Verdana" font-size="14" lengthAdjust="spacing" textLength="231.2871" x="881.76" y="438.7432">classBalance : Number &#171;default&#187;</text><ellipse cx="874.76" cy="451.6934" fill="#FFFFFF" rx="3" ry="3" style="stroke:#000000;stroke-width:1;"/><text fill="#000000" font-family="Verdana" font-size="14" lengthAdjust="spacing" textLength="115.7803" x="881.76" y="455.0401">createdAt : Date</text><ellipse cx="874.76" cy="467.9903" fill="#FFFFFF" rx="3" ry="3" style="stroke:#000000;stroke-width:1;"/><text fill="#000000" font-family="Verdana" font-size="14" lengthAdjust="spacing" textLength="120.3604" x="881.76" y="471.337">updatedAt : Date</text><line style="stroke:#000000;stroke-width:1;" x1="864.76" x2="1179.8918" y1="478.6387" y2="478.6387"/></g><!--class class--><g class="entity" data-entity="class" data-source-line="38" data-uid="ent0004" id="entity_class"><rect fill="#FFFFFF" height="190.6719" rx="2.5" ry="2.5" style="stroke:#000000;stroke-width:1;" width="474.6523" x="12" y="287.82"/><ellipse cx="227.1602" cy="301.82" fill="#FFFFFF" rx="9" ry="9" style="stroke:#000000;stroke-width:1;"/><path d="M231.2695,307.82 L223.5508,307.82 L223.5508,295.4294 L231.2695,295.4294 L231.2695,297.5856 L226.0039,297.5856 L226.0039,300.2575 L230.7695,300.2575 L230.7695,302.4137 L226.0039,302.4137 L226.0039,305.6637 L231.2695,305.6637 L231.2695,307.82 Z " fill="#000000"/><text fill="#000000" font-family="Verdana" font-size="14" lengthAdjust="spacing" textLength="36.832" x="244.6602" y="306.6667">Class</text><line style="stroke:#000000;stroke-width:1;" x1="13" x2="485.6523" y1="315.82" y2="315.82"/><ellipse cx="23" cy="329.4684" fill="#FFFFFF" rx="3" ry="3" style="stroke:#000000;stroke-width:1;"/><text fill="#000000" font-family="Verdana" font-size="14" lengthAdjust="spacing" textLength="238.6563" x="30" y="332.8151">I_ID : String &#171;required, reference&#187;</text><ellipse cx="23" cy="345.7653" fill="#FFFFFF" rx="3" ry="3" style="stroke:#000000;stroke-width:1;"/><text fill="#000000" font-family="Verdana" font-size="14" lengthAdjust="spacing" textLength="162.0049" x="30" y="349.112">day : String &#171;required&#187;</text><ellipse cx="23" cy="362.0622" fill="#FFFFFF" rx="3" ry="3" style="stroke:#000000;stroke-width:1;"/><text fill="#000000" font-family="Verdana" font-size="14" lengthAdjust="spacing" textLength="167.8838" x="30" y="365.4089">time : String &#171;required&#187;</text><ellipse cx="23" cy="378.3591" fill="#FFFFFF" rx="3" ry="3" style="stroke:#000000;stroke-width:1;"/><text fill="#000000" font-family="Verdana" font-size="14" lengthAdjust="spacing" textLength="309.75" x="30" y="381.7057">classType : String &#171;enum: General, Special&#187;</text><ellipse cx="23" cy="394.6559" fill="#FFFFFF" rx="3" ry="3" style="stroke:#000000;stroke-width:1;"/><text fill="#000000" font-family="Verdana" font-size="14" lengthAdjust="spacing" textLength="450.6523" x="30" y="398.0026">specialClassDescription : String &#171;required if classType=Special&#187;</text><ellipse cx="23" cy="410.9528" fill="#FFFFFF" rx="3" ry="3" style="stroke:#000000;stroke-width:1;"/><text fill="#000000" font-family="Verdana" font-size="14" lengthAdjust="spacing" textLength="208.8721" x="30" y="414.2995">payRate : Number &#171;required&#187;</text><ellipse cx="23" cy="427.2497" fill="#FFFFFF" rx="3" ry="3" style="stroke:#000000;stroke-width:1;"/><text fill="#000000" font-family="Verdana" font-size="14" lengthAdjust="spacing" textLength="265.0156" x="30" y="430.5964">isPublished : Boolean &#171;default=false&#187;</text><ellipse cx="23" cy="443.5466" fill="#FFFFFF" rx="3" ry="3" style="stroke:#000000;stroke-width:1;"/><text fill="#000000" font-family="Verdana" font-size="14" lengthAdjust="spacing" textLength="115.7803" x="30" y="446.8932">createdAt : Date</text><ellipse cx="23" cy="459.8434" fill="#FFFFFF" rx="3" ry="3" style="stroke:#000000;stroke-width:1;"/><text fill="#000000" font-family="Verdana" font-size="14" lengthAdjust="spacing" textLength="120.3604" x="30" y="463.1901">updatedAt : Date</text><line style="stroke:#000000;stroke-width:1;" x1="13" x2="485.6523" y1="470.4919" y2="470.4919"/></g><!--class attendance--><g class="entity" data-entity="attendance" data-source-line="50" data-uid="ent0005" id="entity_attendance"><rect fill="#FFFFFF" height="158.0781" rx="2.5" ry="2.5" style="stroke:#000000;stroke-width:1;" width="274.6396" x="422.01" y="579.93"/><ellipse cx="515.2341" cy="593.93" fill="#FFFFFF" rx="9" ry="9" style="stroke:#000000;stroke-width:1;"/><path d="M519.3435,599.93 L511.6247,599.93 L511.6247,587.5394 L519.3435,587.5394 L519.3435,589.6956 L514.0779,589.6956 L514.0779,592.3675 L518.8435,592.3675 L518.8435,594.5238 L514.0779,594.5238 L514.0779,597.7738 L519.3435,597.7738 L519.3435,599.93 Z " fill="#000000"/><text fill="#000000" font-family="Verdana" font-size="14" lengthAdjust="spacing" textLength="80.6914" x="532.7341" y="598.7767">Attendance</text><line style="stroke:#000000;stroke-width:1;" x1="423.01" x2="695.6496" y1="607.93" y2="607.93"/><ellipse cx="433.01" cy="621.5784" fill="#FFFFFF" rx="3" ry="3" style="stroke:#000000;stroke-width:1;"/><text fill="#000000" font-family="Verdana" font-size="14" lengthAdjust="spacing" textLength="209.7471" x="440.01" y="624.9251">class_ID : ObjectId &#171;required&#187;</text><ellipse cx="433.01" cy="637.8753" fill="#FFFFFF" rx="3" ry="3" style="stroke:#000000;stroke-width:1;"/><text fill="#000000" font-family="Verdana" font-size="14" lengthAdjust="spacing" textLength="167.9385" x="440.01" y="641.222">C_ID : String &#171;required&#187;</text><ellipse cx="433.01" cy="654.1722" fill="#FFFFFF" rx="3" ry="3" style="stroke:#000000;stroke-width:1;"/><text fill="#000000" font-family="Verdana" font-size="14" lengthAdjust="spacing" textLength="241.0898" x="440.01" y="657.5189">attendanceDate : Date &#171;required&#187;</text><ellipse cx="433.01" cy="670.4691" fill="#FFFFFF" rx="3" ry="3" style="stroke:#000000;stroke-width:1;"/><text fill="#000000" font-family="Verdana" font-size="14" lengthAdjust="spacing" textLength="250.6396" x="440.01" y="673.8157">attendanceTime : String &#171;required&#187;</text><ellipse cx="433.01" cy="686.7659" fill="#FFFFFF" rx="3" ry="3" style="stroke:#000000;stroke-width:1;"/><text fill="#000000" font-family="Verdana" font-size="14" lengthAdjust="spacing" textLength="205.4131" x="440.01" y="690.1126">isPresent : Boolean &#171;default&#187;</text><ellipse cx="433.01" cy="703.0628" fill="#FFFFFF" rx="3" ry="3" style="stroke:#000000;stroke-width:1;"/><text fill="#000000" font-family="Verdana" font-size="14" lengthAdjust="spacing" textLength="115.7803" x="440.01" y="706.4095">createdAt : Date</text><ellipse cx="433.01" cy="719.3597" fill="#FFFFFF" rx="3" ry="3" style="stroke:#000000;stroke-width:1;"/><text fill="#000000" font-family="Verdana" font-size="14" lengthAdjust="spacing" textLength="120.3604" x="440.01" y="722.7064">updatedAt : Date</text><line style="stroke:#000000;stroke-width:1;" x1="423.01" x2="695.6496" y1="730.0081" y2="730.0081"/></g><!--class package--><g class="entity" data-entity="package" data-source-line="61" data-uid="ent0006" id="entity_package"><rect fill="#FFFFFF" height="190.6719" rx="2.5" ry="2.5" style="stroke:#000000;stroke-width:1;" width="416.3008" x="1620.18" y="287.82"/><ellipse cx="1795.1278" cy="301.82" fill="#FFFFFF" rx="9" ry="9" style="stroke:#000000;stroke-width:1;"/><path d="M1799.2371,307.82 L1791.5184,307.82 L1791.5184,295.4294 L1799.2371,295.4294 L1799.2371,297.5856 L1793.9715,297.5856 L1793.9715,300.2575 L1798.7371,300.2575 L1798.7371,302.4137 L1793.9715,302.4137 L1793.9715,305.6637 L1799.2371,305.6637 L1799.2371,307.82 Z " fill="#000000"/><text fill="#000000" font-family="Verdana" font-size="14" lengthAdjust="spacing" textLength="58.9053" x="1812.6278" y="306.6667">Package</text><line style="stroke:#000000;stroke-width:1;" x1="1621.18" x2="2035.4808" y1="315.82" y2="315.82"/><ellipse cx="1631.18" cy="329.4684" fill="#FFFFFF" rx="3" ry="3" style="stroke:#000000;stroke-width:1;"/><text fill="#000000" font-family="Verdana" font-size="14" lengthAdjust="spacing" textLength="236.9063" x="1638.18" y="332.8151">packageName : String &#171;required&#187;</text><ellipse cx="1631.18" cy="345.7653" fill="#FFFFFF" rx="3" ry="3" style="stroke:#000000;stroke-width:1;"/><text fill="#000000" font-family="Verdana" font-size="14" lengthAdjust="spacing" textLength="358.1006" x="1638.18" y="349.112">packageCategory : String &#171;enum: General, Senior&#187;</text><ellipse cx="1631.18" cy="362.0622" fill="#FFFFFF" rx="3" ry="3" style="stroke:#000000;stroke-width:1;"/><text fill="#000000" font-family="Verdana" font-size="14" lengthAdjust="spacing" textLength="392.3008" x="1638.18" y="365.4089">numberOfClasses : Number &#171;enum: 1, 4, 10, unlimited&#187;</text><ellipse cx="1631.18" cy="378.3591" fill="#FFFFFF" rx="3" ry="3" style="stroke:#000000;stroke-width:1;"/><text fill="#000000" font-family="Verdana" font-size="14" lengthAdjust="spacing" textLength="309.75" x="1638.18" y="381.7057">classType : String &#171;enum: General, Special&#187;</text><ellipse cx="1631.18" cy="394.6559" fill="#FFFFFF" rx="3" ry="3" style="stroke:#000000;stroke-width:1;"/><text fill="#000000" font-family="Verdana" font-size="14" lengthAdjust="spacing" textLength="194.0039" x="1638.18" y="398.0026">startDate : Date &#171;required&#187;</text><ellipse cx="1631.18" cy="410.9528" fill="#FFFFFF" rx="3" ry="3" style="stroke:#000000;stroke-width:1;"/><text fill="#000000" font-family="Verdana" font-size="14" lengthAdjust="spacing" textLength="187.7695" x="1638.18" y="414.2995">endDate : Date &#171;required&#187;</text><ellipse cx="1631.18" cy="427.2497" fill="#FFFFFF" rx="3" ry="3" style="stroke:#000000;stroke-width:1;"/><text fill="#000000" font-family="Verdana" font-size="14" lengthAdjust="spacing" textLength="185.5547" x="1638.18" y="430.5964">price : Number &#171;required&#187;</text><ellipse cx="1631.18" cy="443.5466" fill="#FFFFFF" rx="3" ry="3" style="stroke:#000000;stroke-width:1;"/><text fill="#000000" font-family="Verdana" font-size="14" lengthAdjust="spacing" textLength="115.7803" x="1638.18" y="446.8932">createdAt : Date</text><ellipse cx="1631.18" cy="459.8434" fill="#FFFFFF" rx="3" ry="3" style="stroke:#000000;stroke-width:1;"/><text fill="#000000" font-family="Verdana" font-size="14" lengthAdjust="spacing" textLength="120.3604" x="1638.18" y="463.1901">updatedAt : Date</text><line style="stroke:#000000;stroke-width:1;" x1="1621.18" x2="2035.4808" y1="470.4919" y2="470.4919"/></g><!--class sale--><g class="entity" data-entity="sale" data-source-line="73" data-uid="ent0007" id="entity_sale"><rect fill="#FFFFFF" height="190.6719" rx="2.5" ry="2.5" style="stroke:#000000;stroke-width:1;" width="270.791" x="1131.93" y="563.64"/><ellipse cx="1248.5911" cy="577.64" fill="#FFFFFF" rx="9" ry="9" style="stroke:#000000;stroke-width:1;"/><path d="M1252.7005,583.64 L1244.9818,583.64 L1244.9818,571.2494 L1252.7005,571.2494 L1252.7005,573.4056 L1247.4349,573.4056 L1247.4349,576.0775 L1252.2005,576.0775 L1252.2005,578.2338 L1247.4349,578.2338 L1247.4349,581.4838 L1252.7005,581.4838 L1252.7005,583.64 Z " fill="#000000"/><text fill="#000000" font-family="Verdana" font-size="14" lengthAdjust="spacing" textLength="29.9688" x="1266.0911" y="582.4867">Sale</text><line style="stroke:#000000;stroke-width:1;" x1="1132.93" x2="1401.721" y1="591.64" y2="591.64"/><ellipse cx="1142.93" cy="605.2884" fill="#FFFFFF" rx="3" ry="3" style="stroke:#000000;stroke-width:1;"/><text fill="#000000" font-family="Verdana" font-size="14" lengthAdjust="spacing" textLength="167.9385" x="1149.93" y="608.6351">C_ID : String &#171;required&#187;</text><ellipse cx="1142.93" cy="621.5853" fill="#FFFFFF" rx="3" ry="3" style="stroke:#000000;stroke-width:1;"/><text fill="#000000" font-family="Verdana" font-size="14" lengthAdjust="spacing" textLength="234.3428" x="1149.93" y="624.932">package_ID : ObjectId &#171;required&#187;</text><ellipse cx="1142.93" cy="637.8822" fill="#FFFFFF" rx="3" ry="3" style="stroke:#000000;stroke-width:1;"/><text fill="#000000" font-family="Verdana" font-size="14" lengthAdjust="spacing" textLength="234.5273" x="1149.93" y="641.2289">amountPaid : Number &#171;required&#187;</text><ellipse cx="1142.93" cy="654.1791" fill="#FFFFFF" rx="3" ry="3" style="stroke:#000000;stroke-width:1;"/><text fill="#000000" font-family="Verdana" font-size="14" lengthAdjust="spacing" textLength="236.7627" x="1149.93" y="657.5257">paymentMode : String &#171;required&#187;</text><ellipse cx="1142.93" cy="670.4759" fill="#FFFFFF" rx="3" ry="3" style="stroke:#000000;stroke-width:1;"/><text fill="#000000" font-family="Verdana" font-size="14" lengthAdjust="spacing" textLength="223.7607" x="1149.93" y="673.8226">paymentDate : Date &#171;required&#187;</text><ellipse cx="1142.93" cy="686.7728" fill="#FFFFFF" rx="3" ry="3" style="stroke:#000000;stroke-width:1;"/><text fill="#000000" font-family="Verdana" font-size="14" lengthAdjust="spacing" textLength="246.791" x="1149.93" y="690.1195">validityStartDate : Date &#171;required&#187;</text><ellipse cx="1142.93" cy="703.0697" fill="#FFFFFF" rx="3" ry="3" style="stroke:#000000;stroke-width:1;"/><text fill="#000000" font-family="Verdana" font-size="14" lengthAdjust="spacing" textLength="239.1963" x="1149.93" y="706.4164">validityEndDate : Date &#171;required&#187;</text><ellipse cx="1142.93" cy="719.3666" fill="#FFFFFF" rx="3" ry="3" style="stroke:#000000;stroke-width:1;"/><text fill="#000000" font-family="Verdana" font-size="14" lengthAdjust="spacing" textLength="115.7803" x="1149.93" y="722.7132">createdAt : Date</text><ellipse cx="1142.93" cy="735.6634" fill="#FFFFFF" rx="3" ry="3" style="stroke:#000000;stroke-width:1;"/><text fill="#000000" font-family="Verdana" font-size="14" lengthAdjust="spacing" textLength="120.3604" x="1149.93" y="739.0101">updatedAt : Date</text><line style="stroke:#000000;stroke-width:1;" x1="1132.93" x2="1401.721" y1="746.3119" y2="746.3119"/></g><g class="entity" data-entity="GMN13" data-source-line="94" data-uid="ent0014" id="entity_GMN13"><path d="M442.78,72.07 L442.78,103.33 L408.19,107.33 L442.78,111.33 L442.78,142.6012 A0,0 0 0 0 442.78,142.6012 L839.8723,142.6012 A0,0 0 0 0 839.8723,142.6012 L839.8723,82.07 L829.8723,72.07 L442.78,72.07 A0,0 0 0 0 442.78,72.07" fill="#FFF2CC" style="stroke:#D6B656;stroke-width:1;"/><path d="M829.8723,72.07 L829.8723,82.07 L839.8723,82.07 L829.8723,72.07" fill="#FFF2CC" style="stroke:#D6B656;stroke-width:1;"/><text fill="#000000" font-family="Verdana" font-size="13" font-weight="bold" lengthAdjust="spacing" textLength="173.1895" x="448.78" y="89.1369">Instructor Management</text><text fill="#000000" font-family="Verdana" font-size="13" lengthAdjust="spacing" textLength="265.9668" x="448.78" y="104.2697">&#8226; Auto-generates I_ID (I00123, I00124...)</text><text fill="#000000" font-family="Verdana" font-size="13" lengthAdjust="spacing" textLength="376.0923" x="448.78" y="119.4025">&#8226; Sends welcome messages via preferred communication</text><text fill="#000000" font-family="Verdana" font-size="13" lengthAdjust="spacing" textLength="178.8389" x="448.78" y="134.5353">&#8226; Records class attendance</text></g><g class="entity" data-entity="GMN16" data-source-line="101" data-uid="ent0017" id="entity_GMN16"><path d="M1215.9,347.89 L1215.9,379.15 L1181.06,383.15 L1215.9,387.15 L1215.9,418.4212 A0,0 0 0 0 1215.9,418.4212 L1584.7516,418.4212 A0,0 0 0 0 1584.7516,418.4212 L1584.7516,357.89 L1574.7516,347.89 L1215.9,347.89 A0,0 0 0 0 1215.9,347.89" fill="#FFF2CC" style="stroke:#D6B656;stroke-width:1;"/><path d="M1574.7516,347.89 L1574.7516,357.89 L1584.7516,357.89 L1574.7516,347.89" fill="#FFF2CC" style="stroke:#D6B656;stroke-width:1;"/><text fill="#000000" font-family="Verdana" font-size="13" font-weight="bold" lengthAdjust="spacing" textLength="170.6694" x="1221.9" y="364.9569">Customer Management</text><text fill="#000000" font-family="Verdana" font-size="13" lengthAdjust="spacing" textLength="281.6963" x="1221.9" y="380.0897">&#8226; Auto-generates C_ID (C00123, C00124...)</text><text fill="#000000" font-family="Verdana" font-size="13" lengthAdjust="spacing" textLength="347.8516" x="1221.9" y="395.2225">&#8226; Tracks class balance (decrements with attendance)</text><text fill="#000000" font-family="Verdana" font-size="13" lengthAdjust="spacing" textLength="222.0981" x="1221.9" y="410.3553">&#8226; Receives check-in confirmations</text></g><g class="entity" data-entity="GMN19" data-source-line="108" data-uid="ent0020" id="entity_GMN19"><path d="M522.11,347.89 L522.11,379.15 L486.87,383.15 L522.11,387.15 L522.11,418.4212 A0,0 0 0 0 522.11,418.4212 L828.5387,418.4212 A0,0 0 0 0 828.5387,418.4212 L828.5387,357.89 L818.5387,347.89 L522.11,347.89 A0,0 0 0 0 522.11,347.89" fill="#FFF2CC" style="stroke:#D6B656;stroke-width:1;"/><path d="M818.5387,347.89 L818.5387,357.89 L828.5387,357.89 L818.5387,347.89" fill="#FFF2CC" style="stroke:#D6B656;stroke-width:1;"/><text fill="#000000" font-family="Verdana" font-size="13" font-weight="bold" lengthAdjust="spacing" textLength="123.9443" x="528.11" y="364.9569">Class Scheduling</text><text fill="#000000" font-family="Verdana" font-size="13" lengthAdjust="spacing" textLength="285.4287" x="528.11" y="380.0897">&#8226; One class per time slot (conflict checking)</text><text fill="#000000" font-family="Verdana" font-size="13" lengthAdjust="spacing" textLength="208.9521" x="528.11" y="395.2225">&#8226; General vs Special class types</text><text fill="#000000" font-family="Verdana" font-size="13" lengthAdjust="spacing" textLength="280.96" x="528.11" y="410.3553">&#8226; Pay rate tracking for instructor payments</text></g><g class="entity" data-entity="GMN22" data-source-line="115" data-uid="ent0023" id="entity_GMN22"><path d="M2071.23,347.89 L2071.23,379.15 L2036.8,383.15 L2071.23,387.15 L2071.23,418.4212 A0,0 0 0 0 2071.23,418.4212 L2305.4287,418.4212 A0,0 0 0 0 2305.4287,418.4212 L2305.4287,357.89 L2295.4287,347.89 L2071.23,347.89 A0,0 0 0 0 2071.23,347.89" fill="#FFF2CC" style="stroke:#D6B656;stroke-width:1;"/><path d="M2295.4287,347.89 L2295.4287,357.89 L2305.4287,357.89 L2295.4287,347.89" fill="#FFF2CC" style="stroke:#D6B656;stroke-width:1;"/><text fill="#000000" font-family="Verdana" font-size="13" font-weight="bold" lengthAdjust="spacing" textLength="120.2246" x="2077.23" y="364.9569">Package System</text><text fill="#000000" font-family="Verdana" font-size="13" lengthAdjust="spacing" textLength="205.4482" x="2077.23" y="380.0897">&#8226; Defines class limits and types</text><text fill="#000000" font-family="Verdana" font-size="13" lengthAdjust="spacing" textLength="213.1987" x="2077.23" y="395.2225">&#8226; Validates attendance eligibility</text><text fill="#000000" font-family="Verdana" font-size="13" lengthAdjust="spacing" textLength="181.0859" x="2077.23" y="410.3553">&#8226; General/Senior categories</text></g><g class="entity" data-entity="GMN25" data-source-line="122" data-uid="ent0026" id="entity_GMN25"><path d="M1437.71,623.71 L1437.71,654.97 L1403.17,658.97 L1437.71,662.97 L1437.71,694.2412 A0,0 0 0 0 1437.71,694.2412 L1768.939,694.2412 A0,0 0 0 0 1768.939,694.2412 L1768.939,633.71 L1758.939,623.71 L1437.71,623.71 A0,0 0 0 0 1437.71,623.71" fill="#FFF2CC" style="stroke:#D6B656;stroke-width:1;"/><path d="M1758.939,623.71 L1758.939,633.71 L1768.939,633.71 L1758.939,623.71" fill="#FFF2CC" style="stroke:#D6B656;stroke-width:1;"/><text fill="#000000" font-family="Verdana" font-size="13" font-weight="bold" lengthAdjust="spacing" textLength="107.0913" x="1443.71" y="640.7769">Sales Tracking</text><text fill="#000000" font-family="Verdana" font-size="13" lengthAdjust="spacing" textLength="194.4097" x="1443.71" y="655.9097">&#8226; Records package purchases</text><text fill="#000000" font-family="Verdana" font-size="13" lengthAdjust="spacing" textLength="222.7202" x="1443.71" y="671.0425">&#8226; Updates customer class balance</text><text fill="#000000" font-family="Verdana" font-size="13" lengthAdjust="spacing" textLength="310.229" x="1443.71" y="686.1753">&#8226; Tracks payment methods and validity periods</text></g><g class="entity" data-entity="GMN28" data-source-line="129" data-uid="ent0029" id="entity_GMN28"><path d="M731.45,616.14 L731.45,654.97 L697.14,658.97 L731.45,662.97 L731.45,701.8041 A0,0 0 0 0 731.45,701.8041 L975.202,701.8041 A0,0 0 0 0 975.202,701.8041 L975.202,626.14 L965.202,616.14 L731.45,616.14 A0,0 0 0 0 731.45,616.14" fill="#FFF2CC" style="stroke:#D6B656;stroke-width:1;"/><path d="M965.202,616.14 L965.202,626.14 L975.202,626.14 L965.202,616.14" fill="#FFF2CC" style="stroke:#D6B656;stroke-width:1;"/><text fill="#000000" font-family="Verdana" font-size="13" font-weight="bold" lengthAdjust="spacing" textLength="143.0952" x="737.45" y="633.2069">Attendance System</text><text fill="#000000" font-family="Verdana" font-size="13" lengthAdjust="spacing" textLength="166.2134" x="737.45" y="648.3397">&#8226; Records class check-ins</text><text fill="#000000" font-family="Verdana" font-size="13" lengthAdjust="spacing" textLength="222.752" x="737.45" y="663.4725">&#8226; Validates against package limits</text><text fill="#000000" font-family="Verdana" font-size="13" lengthAdjust="spacing" textLength="222.7202" x="737.45" y="678.6053">&#8226; Updates customer class balance</text><text fill="#000000" font-family="Verdana" font-size="13" lengthAdjust="spacing" textLength="207.1812" x="737.45" y="693.7381">&#8226; Sends confirmation messages</text></g><!--link instructor to class--><g class="link" data-entity-1="instructor" data-entity-2="class" data-source-line="86" data-uid="lnk8" id="link_instructor_class"><path codeLine="86" d="M249.33,210.95 C249.33,238.31 249.33,242.17 249.33,269.53" fill="none" id="instructor-class" style="stroke:#000000;stroke-width:1;"/><line style="stroke:#000000;stroke-width:1;" x1="245.33" x2="253.33" y1="206.95" y2="206.95"/><line style="stroke:#000000;stroke-width:1;" x1="245.33" x2="253.33" y1="209.95" y2="209.95"/><line style="stroke:#000000;stroke-width:1;" x1="249.33" x2="249.33" y1="210.95" y2="202.95"/><line style="stroke:#000000;stroke-width:1;" x1="249.33" x2="255.33" y1="279.53" y2="287.53"/><line style="stroke:#000000;stroke-width:1;" x1="249.33" x2="243.33" y1="279.53" y2="287.53"/><line style="stroke:#000000;stroke-width:1;" x1="249.33" x2="249.33" y1="279.53" y2="287.53"/><ellipse cx="249.33" cy="273.53" fill="none" rx="4" ry="4" style="stroke:#000000;stroke-width:1;"/><text fill="#000000" font-family="Verdana" font-size="13" lengthAdjust="spacing" textLength="51.2192" x="250.33" y="245.7369">teaches</text></g><!--link class to attendance--><g class="link" data-entity-1="class" data-entity-2="attendance" data-source-line="87" data-uid="lnk9" id="link_class_attendance"><path codeLine="87" d="M362.4359,484.0662 C399.6259,516.9162 421.409,536.1539 456.959,567.5539" fill="none" id="class-attendance" style="stroke:#000000;stroke-width:1;"/><line style="stroke:#000000;stroke-width:1;" x1="356.7899" x2="362.086" y1="484.416" y2="478.4201"/><line style="stroke:#000000;stroke-width:1;" x1="359.0383" x2="364.3345" y1="486.4021" y2="480.4062"/><line style="stroke:#000000;stroke-width:1;" x1="362.4359" x2="356.44" y1="484.0662" y2="478.77"/><line style="stroke:#000000;stroke-width:1;" x1="464.454" x2="474.422" y1="574.174" y2="574.973"/><line style="stroke:#000000;stroke-width:1;" x1="464.454" x2="466.478" y1="574.174" y2="583.967"/><line style="stroke:#000000;stroke-width:1;" x1="464.454" x2="470.45" y1="574.174" y2="579.47"/><ellipse cx="459.957" cy="570.2019" fill="none" rx="4" ry="4" style="stroke:#000000;stroke-width:1;"/><text fill="#000000" font-family="Verdana" font-size="13" lengthAdjust="spacing" textLength="101.1118" x="415.33" y="529.7069">has attendance</text></g><!--link customer to attendance--><g class="link" data-entity-1="customer" data-entity-2="attendance" data-source-line="88" data-uid="lnk10" id="link_customer_attendance"><path codeLine="88" d="M856.377,480.7663 C785.277,522.1763 722.4,558.83 714.33,563.64 C705.67,568.8 712.1758,564.8639 703.1958,570.2639" fill="none" id="customer-attendance" style="stroke:#000000;stroke-width:1;"/><line style="stroke:#000000;stroke-width:1;" x1="857.8204" x2="861.8466" y1="475.2966" y2="482.2096"/><line style="stroke:#000000;stroke-width:1;" x1="855.228" x2="859.2543" y1="476.8065" y2="483.7195"/><line style="stroke:#000000;stroke-width:1;" x1="856.377" x2="863.29" y1="480.7663" y2="476.74"/><line style="stroke:#000000;stroke-width:1;" x1="694.6259" x2="690.862" y1="575.4173" y2="584.6819"/><line style="stroke:#000000;stroke-width:1;" x1="694.6259" x2="684.678" y1="575.4173" y2="574.3981"/><line style="stroke:#000000;stroke-width:1;" x1="694.6259" x2="687.77" y1="575.4173" y2="579.54"/><ellipse cx="699.7678" cy="572.3253" fill="none" rx="4" ry="4" style="stroke:#000000;stroke-width:1;"/><text fill="#000000" font-family="Verdana" font-size="13" lengthAdjust="spacing" textLength="49.4229" x="790.33" y="529.7069">attends</text></g><!--link customer to sale--><g class="link" data-entity-1="customer" data-entity-2="sale" data-source-line="89" data-uid="lnk11" id="link_customer_sale"><path codeLine="89" d="M1119.5851,492.8512 C1141.9951,517.8912 1148.5193,525.1842 1170.5693,549.8342" fill="none" id="customer-sale" style="stroke:#000000;stroke-width:1;"/><line style="stroke:#000000;stroke-width:1;" x1="1113.9369" x2="1119.8982" y1="492.5382" y2="487.2031"/><line style="stroke:#000000;stroke-width:1;" x1="1115.9376" x2="1121.8989" y1="494.7737" y2="489.4385"/><line style="stroke:#000000;stroke-width:1;" x1="1119.5851" x2="1114.25" y1="492.8512" y2="486.89"/><line style="stroke:#000000;stroke-width:1;" x1="1177.2363" x2="1187.0419" y1="557.2874" y2="559.2498"/><line style="stroke:#000000;stroke-width:1;" x1="1177.2363" x2="1178.0981" y1="557.2874" y2="567.2502"/><line style="stroke:#000000;stroke-width:1;" x1="1177.2363" x2="1182.57" y1="557.2874" y2="563.25"/><ellipse cx="1173.2361" cy="552.8155" fill="none" rx="4" ry="4" style="stroke:#000000;stroke-width:1;"/><text fill="#000000" font-family="Verdana" font-size="13" lengthAdjust="spacing" textLength="66.7329" x="1153.33" y="529.7069">purchases</text></g><!--link package to sale--><g class="link" data-entity-1="package" data-entity-2="sale" data-source-line="90" data-uid="lnk12" id="link_package_sale"><path codeLine="90" d="M1612.6829,482.0943 C1606.7329,484.7243 1608.15,484.09 1602.33,486.64 C1521.88,521.89 1498.38,523.36 1420.33,563.64 C1414.64,566.57 1424.6838,561.0053 1418.9038,564.1653" fill="none" id="package-sale" style="stroke:#000000;stroke-width:1;"/><line style="stroke:#000000;stroke-width:1;" x1="1614.7243" x2="1617.9586" y1="476.8186" y2="484.1357"/><line style="stroke:#000000;stroke-width:1;" x1="1611.9804" x2="1615.2147" y1="478.0314" y2="485.3485"/><line style="stroke:#000000;stroke-width:1;" x1="1612.6829" x2="1620" y1="482.0943" y2="478.86"/><line style="stroke:#000000;stroke-width:1;" x1="1410.1294" x2="1405.9882" y1="568.9624" y2="578.0646"/><line style="stroke:#000000;stroke-width:1;" x1="1410.1294" x2="1400.2318" y1="568.9624" y2="567.5354"/><line style="stroke:#000000;stroke-width:1;" x1="1410.1294" x2="1403.11" y1="568.9624" y2="572.8"/><ellipse cx="1415.394" cy="566.0842" fill="none" rx="4" ry="4" style="stroke:#000000;stroke-width:1;"/><text fill="#000000" font-family="Verdana" font-size="13" lengthAdjust="spacing" textLength="45.4619" x="1526.33" y="529.7069">sold as</text></g><!--SRC=[vLRDSY8t4Bxp50evnEl2ZkquhYsNlLKmm8QA5oWFpZKbPXfGh95c9OrJr6wgyYnvj3n9MZyp32mCyUOOBeoaLgk_hxzkwHkpWWn8pYaJBVtCH4uLpGW8myoQV6eHqgF9yrB9GgIHv5AHRmTlXzV3lbsHAWKLPgy6Rs-wlTOVDIT26jZlOZWSNaNHhel-JU_cnnjqqVgEtDiVcGucquS16Ondezbe4FlPLWYkFHBQg28nKhK9rOHLGtVeAHdzEkgJMn8RnSIItDqLWdqiuDqxjxXWIfinHUmr2mKV2wOW3JQS7ZMXQQf0wmQBV2L5amV8AEFxrZjaA-1SmG8KpaSoot0beOP9KTy8eiY2SQA06aYx1jVx-EKcYppTdaIcIowZGXkPWMSo2OF0O_G_vX53rptAgKZisUCYcoCjTtSfB6Z1pMlPBdKTFNJZ-92i8tkcpuFzEY3c3Jg71p3044rArmqq6TQO1tVaR9t3BY6tv3q8K9HtI9n3mYWFExGVkQZxe1F5ybr2opC8MsmEkDzsazFr8x9K9tadDAQdnPmplK97jzWv90SgDhcuNr2kuMlrtpK6H6hJx9YdrJ3GxyBsAPZCVuF4ZD8l8umEvAZKUEMqxv6wlmQpMNEka12i6KImZuwlbUQq6_tSVN-mvqwnbTEb9odttu6XC3fIvy4gmbENKgsRL0Q2IHMs2QU9oSAf37HT9NxRPOTSTyZbXIrspZ9c_ekY3LMcCKMOdyRrNB6aISglbcTCkUTSuyU1jhoVwMEQfHdUosPAMTeGBnPdXg5ya6bpRfrL8pClbBCK8SL7EIuj1qUuVhN27mSFtTbeCev_6arBUTVU3fy_dvt9Jw7ttfAs0PgiGBTRVYOirne4sgosMWQQbXVeNci_qb-QkUIYGLwe15tQGyiQsx7GagSeX_O6LUyf7eq7UAiyFZrWrOudiwfstJjCiUNA4BceFPCiKwURHnJvG0KUPLDuUefhV__v5-aMHfujNPaOB3jt2PsCBYukhtxe4FT_VNv-_YPOnnOM-HruWgX8XlSv-jFaXT7DhKkI-hKRDZv2WW_1yiBRi8NwJzqpihK3ecJEGIZVBly2WAkPaoW0Y7O1p1JINOOn3zV-IGgeCUiLiJ6pgiNtPXC_i1VqZqf9di-OG9G2NqQP0waFmx07UGpko1ZtfmN7wge0JF3Hu-F94Q6xlJMNXfpO4pXBZ3yJjvJ1XAv6NdJPru83WqrG1wCfFX8i9SHOoBQS5wY0MXc4OZuSUr2cYpxS2YHUQmDP5NiV5an0oQThovXTz5UFv1TRvouvjIe1pfPipZZM_pQgx_srG19_WJ0u7A2j5HUTRPxQvxRER2cwiiIggWlhJxaFgwhIBLbiAoQmXPetAvbwa6K3iubZE7amq9hURRYRfyWkdzjbKcfj3v5BQZDP8VFClmQMh-IwYAjohc3y0m00]--></g></svg>